<mxfile host="app.diagrams.net" modified="2021-01-04T17:18:29.822Z" agent="5.0 (Macintosh; Intel Mac OS X 10_14_6) AppleWebKit/537.36 (KHTML, like Gecko) Chrome/87.0.4280.88 Safari/537.36" etag="WJADo22rnGCre4s9TkAK" version="14.1.8" type="github">
  <diagram id="gD_DRREKQH8fMPYWZJaA" name="Page-1">
    <mxGraphModel dx="851" dy="429" grid="1" gridSize="10" guides="1" tooltips="1" connect="1" arrows="1" fold="1" page="1" pageScale="1" pageWidth="850" pageHeight="1100" math="0" shadow="0">
      <root>
        <mxCell id="0" />
        <mxCell id="1" parent="0" />
        <mxCell id="LzA8JWc9qoR7ILaJuESl-1" value="API GATEWAY" style="shape=umlLifeline;perimeter=lifelinePerimeter;whiteSpace=wrap;html=1;container=1;collapsible=0;recursiveResize=0;outlineConnect=0;rounded=1;shadow=0;comic=0;labelBackgroundColor=none;strokeWidth=1;fontFamily=Verdana;fontSize=12;align=center;" parent="1" vertex="1">
          <mxGeometry x="160" y="70" width="100" height="230" as="geometry" />
        </mxCell>
        <mxCell id="LzA8JWc9qoR7ILaJuESl-2" value="" style="html=1;points=[];perimeter=orthogonalPerimeter;rounded=0;shadow=0;comic=0;labelBackgroundColor=none;strokeWidth=1;fontFamily=Verdana;fontSize=12;align=center;" parent="LzA8JWc9qoR7ILaJuESl-1" vertex="1">
          <mxGeometry x="45" y="100" width="10" height="110" as="geometry" />
        </mxCell>
        <mxCell id="LzA8JWc9qoR7ILaJuESl-3" value="CATÁLOGO" style="shape=umlLifeline;perimeter=lifelinePerimeter;whiteSpace=wrap;html=1;container=1;collapsible=0;recursiveResize=0;outlineConnect=0;rounded=1;shadow=0;comic=0;labelBackgroundColor=none;strokeWidth=1;fontFamily=Verdana;fontSize=12;align=center;" parent="1" vertex="1">
          <mxGeometry x="320" y="70" width="100" height="220" as="geometry" />
        </mxCell>
        <mxCell id="LzA8JWc9qoR7ILaJuESl-4" value="" style="html=1;points=[];perimeter=orthogonalPerimeter;rounded=0;shadow=0;comic=0;labelBackgroundColor=none;strokeWidth=1;fontFamily=Verdana;fontSize=12;align=center;" parent="LzA8JWc9qoR7ILaJuESl-3" vertex="1">
          <mxGeometry x="45" y="120" width="10" height="90" as="geometry" />
        </mxCell>
        <mxCell id="LzA8JWc9qoR7ILaJuESl-5" value="Smart Client" style="shape=umlLifeline;perimeter=lifelinePerimeter;whiteSpace=wrap;html=1;container=1;collapsible=0;recursiveResize=0;outlineConnect=0;rounded=1;shadow=0;comic=0;labelBackgroundColor=none;strokeWidth=1;fontFamily=Verdana;fontSize=12;align=center;" parent="1" vertex="1">
          <mxGeometry x="460" y="70" width="100" height="340" as="geometry" />
        </mxCell>
        <mxCell id="LzA8JWc9qoR7ILaJuESl-6" value="CDN" style="shape=umlLifeline;perimeter=lifelinePerimeter;whiteSpace=wrap;html=1;container=1;collapsible=0;recursiveResize=0;outlineConnect=0;rounded=1;shadow=0;comic=0;labelBackgroundColor=none;strokeWidth=1;fontFamily=Verdana;fontSize=12;align=center;" parent="1" vertex="1">
          <mxGeometry x="600" y="70" width="100" height="330" as="geometry" />
        </mxCell>
        <mxCell id="LzA8JWc9qoR7ILaJuESl-8" value=":Object" style="shape=umlLifeline;perimeter=lifelinePerimeter;whiteSpace=wrap;html=1;container=1;collapsible=0;recursiveResize=0;outlineConnect=0;rounded=1;shadow=0;comic=0;labelBackgroundColor=none;strokeWidth=1;fontFamily=Verdana;fontSize=12;align=center;" parent="1" vertex="1">
          <mxGeometry x="880" y="70" width="100" height="580" as="geometry" />
        </mxCell>
        <mxCell id="LzA8JWc9qoR7ILaJuESl-9" value="Smart App" style="shape=umlLifeline;perimeter=lifelinePerimeter;whiteSpace=wrap;html=1;container=1;collapsible=0;recursiveResize=0;outlineConnect=0;rounded=1;shadow=0;comic=0;labelBackgroundColor=none;strokeWidth=1;fontFamily=Verdana;fontSize=12;align=center;" parent="1" vertex="1">
          <mxGeometry x="20" y="70" width="100" height="340" as="geometry" />
        </mxCell>
        <mxCell id="LzA8JWc9qoR7ILaJuESl-10" value="" style="html=1;points=[];perimeter=orthogonalPerimeter;rounded=0;shadow=0;comic=0;labelBackgroundColor=none;strokeWidth=1;fontFamily=Verdana;fontSize=12;align=center;" parent="LzA8JWc9qoR7ILaJuESl-9" vertex="1">
          <mxGeometry x="45" y="100" width="10" height="230" as="geometry" />
        </mxCell>
        <mxCell id="LzA8JWc9qoR7ILaJuESl-11" value="" style="html=1;points=[];perimeter=orthogonalPerimeter;rounded=0;shadow=0;comic=0;labelBackgroundColor=none;strokeWidth=1;fontFamily=Verdana;fontSize=12;align=center;" parent="1" vertex="1">
          <mxGeometry x="505" y="210" width="10" height="180" as="geometry" />
        </mxCell>
        <mxCell id="LzA8JWc9qoR7ILaJuESl-13" value="" style="html=1;points=[];perimeter=orthogonalPerimeter;rounded=0;shadow=0;comic=0;labelBackgroundColor=none;strokeWidth=1;fontFamily=Verdana;fontSize=12;align=center;" parent="1" vertex="1">
          <mxGeometry x="645" y="360" width="10" height="20" as="geometry" />
        </mxCell>
        <mxCell id="LzA8JWc9qoR7ILaJuESl-14" value="" style="html=1;verticalAlign=bottom;endArrow=block;entryX=0;entryY=0;labelBackgroundColor=none;fontFamily=Verdana;fontSize=12;edgeStyle=elbowEdgeStyle;elbow=vertical;" parent="1" source="LzA8JWc9qoR7ILaJuESl-11" target="LzA8JWc9qoR7ILaJuESl-13" edge="1">
          <mxGeometry relative="1" as="geometry">
            <mxPoint x="570" y="220" as="sourcePoint" />
          </mxGeometry>
        </mxCell>
        <mxCell id="LzA8JWc9qoR7ILaJuESl-15" value="return" style="html=1;verticalAlign=bottom;endArrow=open;dashed=1;endSize=8;labelBackgroundColor=none;fontFamily=Verdana;fontSize=12;edgeStyle=elbowEdgeStyle;elbow=vertical;" parent="1" target="LzA8JWc9qoR7ILaJuESl-9" edge="1">
          <mxGeometry relative="1" as="geometry">
            <mxPoint x="370" y="390" as="targetPoint" />
            <Array as="points">
              <mxPoint x="495" y="390" />
              <mxPoint x="445" y="370" />
              <mxPoint x="475" y="370" />
            </Array>
            <mxPoint x="505" y="380" as="sourcePoint" />
          </mxGeometry>
        </mxCell>
        <mxCell id="LzA8JWc9qoR7ILaJuESl-17" value="REQUEST URL: https://smart.rededor?unidade=DFSTAR" style="html=1;verticalAlign=bottom;endArrow=block;entryX=0;entryY=0;labelBackgroundColor=none;fontFamily=Verdana;fontSize=12;" parent="1" edge="1">
          <mxGeometry relative="1" as="geometry">
            <mxPoint x="75" y="351.0000000000001" as="sourcePoint" />
            <mxPoint x="505" y="351.0000000000001" as="targetPoint" />
          </mxGeometry>
        </mxCell>
        <mxCell id="LzA8JWc9qoR7ILaJuESl-18" value="" style="html=1;points=[];perimeter=orthogonalPerimeter;rounded=0;shadow=0;comic=0;labelBackgroundColor=none;strokeColor=#000000;strokeWidth=1;fillColor=#FFFFFF;fontFamily=Verdana;fontSize=12;fontColor=#000000;align=center;" parent="1" vertex="1">
          <mxGeometry x="925" y="450" width="10" height="30" as="geometry" />
        </mxCell>
        <mxCell id="LzA8JWc9qoR7ILaJuESl-24" value="GET UNIDADE INFO" style="html=1;verticalAlign=bottom;endArrow=block;entryX=0;entryY=0;labelBackgroundColor=none;fontFamily=Verdana;fontSize=12;edgeStyle=elbowEdgeStyle;elbow=vertical;" parent="1" source="LzA8JWc9qoR7ILaJuESl-10" target="LzA8JWc9qoR7ILaJuESl-2" edge="1">
          <mxGeometry relative="1" as="geometry">
            <mxPoint x="140" y="180" as="sourcePoint" />
            <mxPoint as="offset" />
          </mxGeometry>
        </mxCell>
        <mxCell id="LzA8JWc9qoR7ILaJuESl-25" value="" style="html=1;verticalAlign=bottom;endArrow=block;entryX=0;entryY=0;labelBackgroundColor=none;fontFamily=Verdana;fontSize=12;edgeStyle=elbowEdgeStyle;elbow=vertical;" parent="1" source="LzA8JWc9qoR7ILaJuESl-2" target="LzA8JWc9qoR7ILaJuESl-4" edge="1">
          <mxGeometry relative="1" as="geometry">
            <mxPoint x="290" y="190" as="sourcePoint" />
          </mxGeometry>
        </mxCell>
        <mxCell id="LzA8JWc9qoR7ILaJuESl-37" value="Note" style="shape=note;whiteSpace=wrap;html=1;size=14;verticalAlign=top;align=left;spacingTop=-6;rounded=0;shadow=0;comic=0;labelBackgroundColor=none;strokeWidth=1;fontFamily=Verdana;fontSize=12" parent="1" vertex="1">
          <mxGeometry x="880" y="20" width="100" height="35" as="geometry" />
        </mxCell>
        <mxCell id="LzA8JWc9qoR7ILaJuESl-38" value="" style="endArrow=classic;html=1;" parent="1" source="LzA8JWc9qoR7ILaJuESl-39" edge="1">
          <mxGeometry width="50" height="50" relative="1" as="geometry">
            <mxPoint x="361" y="240" as="sourcePoint" />
            <mxPoint x="70.5" y="240" as="targetPoint" />
            <Array as="points" />
          </mxGeometry>
        </mxCell>
        <mxCell id="LzA8JWc9qoR7ILaJuESl-39" value="" style="dashed=0;outlineConnect=0;html=1;align=center;labelPosition=center;verticalLabelPosition=bottom;verticalAlign=top;shape=mxgraph.webicons.json;gradientColor=#DFDEDE;fontStyle=2;fontFamily=Verdana;fontColor=#FF0000;" parent="1" vertex="1">
          <mxGeometry x="110" y="209.4" width="62.4" height="61.2" as="geometry" />
        </mxCell>
        <mxCell id="LzA8JWc9qoR7ILaJuESl-40" value="" style="endArrow=classic;html=1;" parent="1" target="LzA8JWc9qoR7ILaJuESl-10" edge="1">
          <mxGeometry width="50" height="50" relative="1" as="geometry">
            <mxPoint x="361" y="240" as="sourcePoint" />
            <mxPoint x="70.5" y="240" as="targetPoint" />
            <Array as="points">
              <mxPoint x="251" y="240" />
            </Array>
          </mxGeometry>
        </mxCell>
        <mxCell id="LzA8JWc9qoR7ILaJuESl-42" value="Paciente @DFSTAR" style="shape=umlActor;verticalLabelPosition=bottom;verticalAlign=top;html=1;outlineConnect=0;" parent="1" vertex="1">
          <mxGeometry x="59.75" y="9" width="21.25" height="40" as="geometry" />
        </mxCell>
        <mxCell id="LzA8JWc9qoR7ILaJuESl-43" value="&lt;font style=&quot;font-size: 8px&quot;&gt;CDN (Parâmetros)&lt;br&gt;Módulos (Disponíveis)&lt;/font&gt;" style="text;html=1;resizable=0;autosize=1;align=left;verticalAlign=middle;points=[];fillColor=none;strokeColor=none;rounded=0;fontFamily=Verdana;fontColor=#FF0000;" parent="1" vertex="1">
          <mxGeometry x="94" y="260" width="100" height="40" as="geometry" />
        </mxCell>
        <mxCell id="LzA8JWc9qoR7ILaJuESl-45" value="&lt;font style=&quot;font-size: 8px&quot;&gt;PARAMETROS:&lt;br&gt;&amp;nbsp;- IP_ADDRESS&amp;nbsp;&lt;br&gt;&amp;nbsp;- GEOLOCATION&lt;br&gt;&lt;br&gt;&lt;/font&gt;" style="text;html=1;resizable=0;autosize=1;align=left;verticalAlign=middle;points=[];fillColor=none;strokeColor=none;rounded=0;fontFamily=Verdana;fontColor=#FF0000;" parent="1" vertex="1">
          <mxGeometry x="110" y="160" width="80" height="70" as="geometry" />
        </mxCell>
        <mxCell id="NwSXtSKKotEB45GDTjBv-1" value="return" style="html=1;verticalAlign=bottom;endArrow=open;dashed=1;endSize=8;labelBackgroundColor=none;fontFamily=Verdana;fontSize=12;edgeStyle=elbowEdgeStyle;elbow=vertical;" edge="1" parent="1" source="LzA8JWc9qoR7ILaJuESl-13">
          <mxGeometry relative="1" as="geometry">
            <mxPoint x="515" y="380" as="targetPoint" />
            <Array as="points">
              <mxPoint x="585" y="380" />
              <mxPoint x="575" y="360" />
              <mxPoint x="605" y="360" />
            </Array>
            <mxPoint x="635" y="370" as="sourcePoint" />
          </mxGeometry>
        </mxCell>
      </root>
    </mxGraphModel>
  </diagram>
</mxfile>
